<svg width="244" height="39" viewBox="0 0 244 39" fill="none" xmlns="http://www.w3.org/2000/svg">
<path d="M28.3759 0.649909C20.5353 0.645847 12.3548 2.41298 4.09808 4.70517C3.04963 4.91641 2.02655 5.60295 1.48558 6.45199C0.988248 7.25228 0.807586 8.05561 0.652297 8.89754C-0.14952 13.3946 -0.0520835 17.8104 0.11437 22.7035C0.150908 23.8237 0.317361 25.1511 0.840064 25.9585C1.38611 26.774 2.3219 27.292 3.43937 27.4616C4.86702 27.6711 6.29914 27.8489 7.73467 27.9947L7.41801 36.8284C7.36929 37.5312 7.71234 38.1151 8.13863 38.4513C8.52025 38.7417 8.94552 38.8707 9.38195 38.9032C10.2548 38.9692 11.2789 38.5955 11.7874 37.6266C14.0152 33.3368 15.4128 31.4427 18.1989 28.5929C25.464 28.7717 31.8064 28.3675 38.9873 27.8363C41.5257 27.7703 43.2684 25.6934 43.7291 24.0349C45.1064 19.737 45.3206 14.4315 45.4667 9.06816C45.5287 6.94252 44.7918 4.85548 43.4876 3.75255C42.2473 2.74609 40.7452 2.38149 39.3689 2.00776C35.5455 1.14146 31.7212 0.676315 28.3759 0.649909ZM38.8198 4.01152C40.1981 4.38628 41.413 4.74681 42.1793 5.36937C43.4581 6.72925 43.4155 7.63414 43.3972 9.10167C43.2531 14.3035 43.0034 19.352 41.8302 23.1778C41.3247 24.6047 40.4437 25.6203 38.7792 25.7736C31.4634 26.315 25.1158 26.7334 17.7625 26.5242C17.6193 26.5196 17.4767 26.5444 17.3435 26.5972C17.2103 26.6499 17.0893 26.7295 16.988 26.8309C13.8985 29.9528 12.3182 32.1221 9.96352 36.6577C9.90871 36.7613 9.78996 36.8243 9.64381 36.8355C9.54536 36.8304 9.50578 36.7542 9.49969 36.6852L9.81838 27.1061C9.83767 26.5892 9.41138 26.0956 8.89782 26.0397C7.18062 25.8756 5.46812 25.6656 3.76213 25.4101C3.02527 25.2973 2.75326 25.0952 2.55128 24.7946C2.20011 23.9567 2.20823 23.4388 2.18082 22.6334C2.0164 17.784 1.9352 13.5459 2.67917 9.32916C2.74819 8.70559 2.98163 8.0678 3.22928 7.53461C3.63932 6.89276 4.26758 6.79831 4.89787 6.62363C12.9729 4.39237 20.8733 2.72375 28.3109 2.71867C31.9566 2.8507 35.7851 3.21631 38.8198 4.01152V4.01152ZM10.9298 12.2277C9.81737 13.5611 9.928 15.3719 10.7877 16.5846C11.2363 17.2193 11.9366 17.7301 12.7892 17.8459C13.8965 17.9373 14.5988 17.4884 15.357 16.9725C16.7302 15.7782 16.8693 13.6942 15.8249 12.1891C15.2931 11.4223 14.4425 10.9622 13.5737 10.9297C12.3842 10.9419 11.5763 11.4731 10.9298 12.2267V12.2277ZM22.9631 11.139C21.8548 11.1745 20.9586 11.9423 20.4115 12.771C19.7853 13.7186 19.4199 14.9048 19.9263 16.0676C20.9007 18.305 24.2673 18.2776 25.6101 16.0036C26.2292 14.9555 26.0709 13.7643 25.6101 12.9C25.1514 12.0367 24.4571 11.3329 23.4472 11.1715C23.2873 11.1451 23.1251 11.1342 22.9631 11.139V11.139ZM32.7321 11.3492C32.387 11.3411 32.0318 11.3736 31.6988 11.4619C30.3672 11.8174 29.2335 13.1925 29.405 14.9525C29.4923 15.8381 29.8993 16.7014 30.6331 17.2965C31.367 17.8906 32.4327 18.1567 33.5562 17.9262C34.8472 17.6621 35.647 16.6211 35.914 15.6157C36.1809 14.6102 36.1139 13.5855 35.4938 12.7548C35.1711 12.3254 34.7546 11.9756 34.2761 11.732C33.7977 11.4884 33.2699 11.3574 32.7331 11.3492H32.7321ZM13.4834 12.9975C13.7321 12.9995 13.9279 13.0787 14.1299 13.3692C14.5816 14.0212 14.4557 15.0094 14 15.4055C13.5463 15.8015 13.2631 15.8361 13.0642 15.8097C12.8653 15.7822 12.6633 15.6451 12.4826 15.3892C12.1376 14.9017 12.0361 14.1136 12.4898 13.551C12.7313 13.2301 13.1748 13.03 13.4844 12.9975H13.4834ZM23.1082 13.224C23.1468 13.2301 23.5792 13.4809 23.7862 13.8699C23.9933 14.2589 24.0319 14.6204 23.835 14.9525C23.2493 15.9437 22.004 15.6756 21.8152 15.244C21.7441 15.0795 21.7979 14.4183 22.14 13.9034C22.48 13.3865 22.9083 13.1925 23.1082 13.2229V13.224ZM33.8303 13.9836C33.8932 14.0679 34.0464 14.6336 33.9277 15.0825C33.8079 15.5314 33.6131 15.8086 33.136 15.9061C32.525 16.0321 32.182 15.9061 31.9252 15.6959C31.6674 15.4877 31.4938 15.1353 31.4563 14.7585C31.3649 13.8242 31.6999 13.6079 32.2317 13.4657C32.8508 13.3133 33.5511 13.5794 33.8303 13.9836V13.9836Z" fill="white"/>
<path d="M58.4623 4.83117C58.4785 4.56712 58.5749 4.32947 58.7536 4.11924C58.8405 4.01618 58.9498 3.93427 59.073 3.87972C59.1963 3.82518 59.3304 3.79942 59.4651 3.80441H66.3932C66.6266 3.80441 66.8671 3.90191 67.1158 4.09589C67.2323 4.17959 67.3271 4.29006 67.3921 4.41801C67.4571 4.54596 67.4904 4.68765 67.4893 4.83117V15.894H79.0812V4.83117C79.0812 4.55087 79.1786 4.31018 79.3724 4.10807C79.5673 3.90495 79.819 3.80339 80.1306 3.80339H86.9653C87.2759 3.80339 87.5479 3.8816 87.7814 4.03698C88.0148 4.19338 88.1315 4.4422 88.1315 4.78446V37.4358C88.1315 37.778 88.03 38.035 87.827 38.2056C87.6261 38.3772 87.3612 38.4625 87.0354 38.4625H80.1306C79.82 38.4625 79.5673 38.3772 79.3724 38.2056C79.1786 38.035 79.0812 37.779 79.0812 37.4358V24.1792H67.4893V37.4358C67.4893 37.7628 67.3838 38.0147 67.1747 38.1944C66.9646 38.3732 66.6804 38.4625 66.3221 38.4625H59.4651C58.8124 38.4625 58.4785 38.1589 58.4623 37.5526V4.83117ZM122.278 38.0664C122.076 38.2371 121.862 38.3457 121.636 38.3925C121.426 38.4379 121.211 38.4617 120.996 38.4635H117.474C117.194 38.4635 116.952 38.4128 116.75 38.3112C116.547 38.2096 116.377 38.0736 116.237 37.9029C116.093 37.7257 115.976 37.5291 115.888 37.319C115.794 37.0994 115.716 36.8734 115.654 36.6426L114.931 33.6547C114.698 34.1371 114.36 34.6855 113.917 35.3C113.437 35.952 112.867 36.5332 112.226 37.0265C111.542 37.5647 110.724 38.0157 109.777 38.3813C108.828 38.7469 107.739 38.9297 106.51 38.9297C104.738 38.9297 103.129 38.5874 101.682 37.9029C100.266 37.2409 99.0064 36.2863 97.9858 35.1019C96.9678 33.9198 96.1781 32.5386 95.6189 30.9583C95.0586 29.3801 94.7785 27.6952 94.7785 25.9068V10.619C94.7785 10.028 94.9074 9.5811 95.1642 9.27744C95.4199 8.97378 95.828 8.82245 96.3882 8.82245H101.776C102.445 8.82245 102.903 8.93417 103.152 9.16065C103.401 9.38611 103.525 9.82586 103.525 10.4789V25.6722C103.525 26.3424 103.678 26.9762 103.98 27.5754C104.284 28.1746 104.683 28.7027 105.182 29.1617C105.679 29.6208 106.242 29.9833 106.873 30.2474C107.502 30.5115 108.143 30.6435 108.797 30.6435C109.356 30.6435 109.936 30.5115 110.535 30.2474C111.137 29.98 111.696 29.6217 112.19 29.1851C112.696 28.7423 113.112 28.2203 113.438 27.6211C113.765 27.0219 113.928 26.3881 113.928 25.7199V10.549C113.928 10.2849 113.978 10.0209 114.08 9.75578C114.181 9.49173 114.333 9.28861 114.535 9.14846C114.737 9.02456 114.927 8.93925 115.106 8.89253C115.285 8.84581 115.492 8.82144 115.724 8.82144H120.996C121.664 8.82144 122.146 8.98596 122.441 9.31197C122.737 9.63899 122.885 10.0747 122.885 10.619V36.736C122.885 37.0305 122.819 37.3037 122.687 37.5526C122.555 37.8014 122.372 37.9964 122.139 38.1355L122.278 38.0664V38.0664ZM149.358 34.845C148.938 35.2654 148.475 35.7164 147.97 36.1988C147.465 36.6812 146.909 37.1331 146.303 37.5526C145.693 37.9747 145.035 38.3234 144.344 38.5915C143.622 38.8679 142.854 39.0064 142.081 38.9998C139.966 38.9998 138.019 38.6037 136.237 37.8095C134.501 37.0471 132.938 35.9393 131.643 34.5535C130.36 33.1764 129.357 31.5545 128.634 29.6868C127.911 27.8201 127.549 25.8133 127.549 23.6653C127.549 21.5021 127.911 19.4913 128.634 17.6327C129.357 15.7742 130.36 14.1553 131.643 12.7782C132.936 11.3937 134.5 10.2896 136.237 9.53438C138.019 8.74832 139.966 8.35528 142.081 8.35528C142.936 8.35528 143.718 8.4802 144.425 8.72902C145.108 8.96566 145.758 9.28707 146.361 9.68571C146.944 10.0747 147.48 10.5144 147.97 11.0039C148.46 11.4945 148.922 11.9728 149.358 12.44V1.77322C149.358 1.27558 149.51 0.856145 149.813 0.51389C150.116 0.17062 150.571 0 151.178 0H156.425C156.628 0 156.841 0.0426549 157.066 0.127965C157.292 0.21429 157.498 0.33413 157.686 0.490531C157.871 0.645917 158.023 0.832786 158.139 1.05012C158.256 1.26848 158.315 1.50917 158.315 1.77322V36.6659C158.315 37.8643 157.686 38.4635 156.425 38.4635H151.854C151.543 38.4635 151.301 38.4229 151.131 38.3457C150.962 38.2697 150.813 38.1536 150.699 38.0075C150.569 37.8363 150.463 37.648 150.384 37.448C150.274 37.1845 150.158 36.9237 150.035 36.6659L149.358 34.845V34.845ZM135.946 23.6653C135.938 24.6468 136.1 25.6222 136.424 26.5486C136.743 27.4423 137.198 28.2172 137.789 28.8703C138.387 29.5284 139.113 30.0566 139.923 30.4221C140.755 30.8039 141.677 30.9939 142.688 30.9939C143.682 30.9939 144.619 30.8151 145.498 30.4576C146.352 30.1155 147.131 29.612 147.795 28.9749C148.454 28.3367 148.988 27.5811 149.37 26.7466C149.766 25.8905 149.988 24.9724 150.035 23.9924V23.6653C150.038 22.6887 149.848 21.721 149.475 20.8186C149.113 19.934 148.587 19.1261 147.924 18.4381C147.259 17.7509 146.467 17.1999 145.591 16.8162C144.676 16.4151 143.687 16.2122 142.688 16.221C141.677 16.221 140.755 16.4191 139.923 16.8162C139.091 17.2123 138.38 17.7536 137.789 18.4381C137.189 19.1388 136.726 19.9464 136.424 20.8186C136.104 21.7333 135.942 22.6961 135.947 23.6653H135.946ZM185.395 34.845C184.975 35.2654 184.512 35.7164 184.006 36.1988C183.501 36.6812 182.945 37.1331 182.339 37.5526C181.729 37.9747 181.072 38.3234 180.38 38.5915C179.658 38.8679 178.89 39.0064 178.117 38.9998C176.003 38.9998 174.055 38.6037 172.275 37.8095C170.538 37.0472 168.974 35.9395 167.679 34.5535C166.397 33.1764 165.393 31.5545 164.671 29.6868C163.948 27.8201 163.586 25.8133 163.586 23.6653C163.586 21.5021 163.948 19.4913 164.671 17.6327C165.393 15.7742 166.396 14.1553 167.679 12.7782C168.973 11.3936 170.537 10.2895 172.275 9.53438C174.055 8.74832 176.003 8.35528 178.117 8.35528C178.972 8.35528 179.754 8.4802 180.461 8.72902C181.144 8.96566 181.794 9.28707 182.397 9.68571C182.98 10.0747 183.516 10.5144 184.006 11.0039C184.497 11.4945 184.959 11.9728 185.394 12.44V1.77322C185.394 1.27558 185.546 0.856145 185.849 0.51389C186.153 0.17062 186.607 0 187.214 0H192.461C192.664 0 192.877 0.0426549 193.103 0.127965C193.329 0.21429 193.535 0.33413 193.722 0.490531C193.907 0.645917 194.06 0.832786 194.176 1.05012C194.292 1.26848 194.351 1.50917 194.351 1.77322V36.6659C194.351 37.8643 193.722 38.4635 192.461 38.4635H187.89C187.579 38.4635 187.338 38.4229 187.167 38.3457C186.998 38.2695 186.85 38.1535 186.736 38.0075C186.606 37.8363 186.5 37.648 186.421 37.448C186.311 37.1844 186.194 36.9237 186.071 36.6659L185.394 34.845H185.395ZM171.982 23.6653C171.974 24.6468 172.136 25.6222 172.46 26.5486C172.78 27.4423 173.235 28.2172 173.825 28.8703C174.423 29.5285 175.15 30.0568 175.96 30.4221C176.792 30.8039 177.713 30.9939 178.724 30.9939C179.718 30.9939 180.655 30.8151 181.534 30.4576C182.388 30.1156 183.168 29.6122 183.832 28.9749C184.49 28.3366 185.024 27.5809 185.405 26.7466C185.802 25.8905 186.024 24.9724 186.071 23.9924V23.6653C186.074 22.6887 185.884 21.721 185.511 20.8186C185.149 19.934 184.623 19.1261 183.96 18.4381C183.295 17.7509 182.503 17.1999 181.627 16.8162C180.712 16.4151 179.723 16.2122 178.724 16.221C177.713 16.221 176.791 16.4191 175.96 16.8162C175.128 17.2123 174.416 17.7536 173.825 18.4381C173.225 19.1388 172.762 19.9464 172.46 20.8186C172.14 21.7333 171.979 22.6961 171.983 23.6653H171.982ZM200.556 1.79658C200.556 1.29894 200.68 0.879503 200.929 0.537249C201.179 0.193978 201.606 0.0233586 202.212 0.0233586H207.926C208.082 0.0233586 208.246 0.0660135 208.416 0.151323C208.596 0.243323 208.757 0.366033 208.894 0.51389C209.042 0.669276 209.166 0.856145 209.268 1.07348C209.369 1.29183 209.42 1.53253 209.42 1.79658V36.6659C209.42 37.257 209.253 37.7039 208.918 38.0075C208.584 38.3112 208.152 38.4625 207.624 38.4625H202.212C201.606 38.4625 201.179 38.3102 200.929 38.0075C200.68 37.7039 200.556 37.256 200.556 36.6659V1.79658ZM239.835 34.9151C238.483 36.1652 236.919 37.1648 235.217 37.8674C233.494 38.5781 231.646 38.9392 229.782 38.9297C227.651 38.9297 225.638 38.5407 223.741 37.7618C221.887 37.0119 220.193 35.9151 218.75 34.5302C217.312 33.1426 216.155 31.4901 215.344 29.6634C214.504 27.7968 214.085 25.7666 214.085 23.5719C214.085 22.2029 214.251 20.8765 214.586 19.5928C214.91 18.3368 215.388 17.1258 216.009 15.9875C216.623 14.8671 217.376 13.8281 218.248 12.895C219.118 11.9603 220.111 11.1475 221.199 10.4789C222.305 9.80164 223.498 9.27563 224.744 8.91487C226.055 8.5366 227.414 8.34816 228.778 8.35528C230.069 8.35528 231.321 8.52692 232.534 8.86917C233.747 9.21143 234.886 9.69383 235.951 10.3154C237.017 10.9379 237.991 11.6854 238.878 12.5568C239.753 13.4136 240.52 14.3736 241.164 15.4157C241.802 16.4501 242.3 17.5644 242.646 18.7296C242.995 19.9046 243.17 21.1142 243.17 22.3583C243.17 23.1677 243.158 23.8289 243.135 24.3427C243.112 24.8556 242.991 25.2649 242.774 25.5675C242.555 25.8722 242.195 26.0814 241.689 26.1972C241.183 26.315 240.44 26.3729 239.462 26.3729H222.668C222.824 27.3682 223.138 28.201 223.612 28.8713C224.051 29.5057 224.61 30.0483 225.256 30.4688C225.879 30.8659 226.539 31.1492 227.24 31.3219C227.888 31.4862 228.553 31.5721 229.222 31.5778C229.782 31.5778 230.357 31.5189 230.947 31.4031C231.529 31.2888 232.103 31.1327 232.663 30.936C233.186 30.7539 233.693 30.5273 234.178 30.2586C234.637 30.0026 235.006 29.7335 235.286 29.4542C235.535 29.2511 235.749 29.0998 235.928 28.9982C236.106 28.8967 236.297 28.8469 236.499 28.8469C236.702 28.8469 236.907 28.918 237.118 29.0571C237.374 29.236 237.612 29.439 237.829 29.6634L240.301 32.4644C240.472 32.6676 240.581 32.8504 240.628 33.0129C240.675 33.1764 240.698 33.3439 240.698 33.5146C240.698 33.8263 240.612 34.0945 240.441 34.3199C240.269 34.5467 240.064 34.7472 239.834 34.9151H239.835ZM228.616 15.4736C228.009 15.4736 227.422 15.5944 226.855 15.8351C226.279 16.0811 225.741 16.4073 225.256 16.804C224.759 17.2082 224.312 17.6673 223.916 18.1811C223.537 18.6656 223.212 19.1901 222.947 19.7452H234.866C234.553 19.16 234.199 18.5983 233.805 18.0643C233.431 17.5578 232.992 17.1026 232.499 16.7106C231.995 16.3139 231.427 16.0062 230.819 15.8006C230.19 15.5822 229.455 15.4736 228.616 15.4736Z" fill="white"/>
</svg>
